<svg xmlns="http://www.w3.org/2000/svg" viewBox="0 0 100 92" role="img" aria-label="Community Assist heart">
  <defs>
    <clipPath id="ca-heart">
      <path d="M50 90C18 67 3 50 3 29 3 14 14 4 27 4 37 4 45 9 50 19 55 9 63 4 73 4 86 4 97 14 97 29 97 50 82 67 50 90Z"/>
    </clipPath>
  </defs>
  <g clip-path="url(#ca-heart)" fill="#4661AD">
    <rect x="0" y="6"  width="100" height="6.4"/>
    <rect x="0" y="18" width="100" height="6.4"/>
    <rect x="0" y="30" width="100" height="6.4"/>
    <rect x="0" y="42" width="100" height="6.4"/>
    <rect x="0" y="54" width="100" height="6.4"/>
    <rect x="0" y="66" width="100" height="6.4"/>
    <rect x="0" y="78" width="100" height="6.4"/>
  </g>
</svg>
